# xmcd CD database file
#
# Track frame offsets:
#	183
#	16383
#	25623
#	40825
#	58248
#	69683
#	92765
#	113540
#	126428
#	147760
#	162005
#	175423
#	190688
#	203290
#	214558
#	226963
#	245838
#	291208
#	309970
#
# Disc length: 4513 seconds
#
# Revision: 1
# Processed by: cddbd v1.5.2PL0 Copyright (c) Steve Scherf et al.
# Submitted via: CDex 1.51
#
DISCID=03119f13
DTITLE=Mary Lou Williams - Vol. 180, The First Lady of The Piano 1952-1971
DYEAR=1993
DGENRE=Jazz
TTITLE0=Roll 'em
TTITLE1=Fandangle
TTITLE2=Mama, Pin A Rose On Me
TTITLE3=Moonglow
TTITLE4=Just You, Just Me
TTITLE5=O.W.
TTITLE6=Talk Of The Town
TTITLE7=A Grand Night For Swinging
TTITLE8=It Ain't Necessarily So
TTITLE9=My Blue Heaven
TTITLE10=A Fungus Amungus
TTITLE11=Dirge Blues
TTITLE12=Anima Christi
TTITLE13=Miss D.D.
TTITLE14=They Can't Take That Away From Me
TTITLE15='round About Midnight
TTITLE16=Down Beat
TTITLE17=Out Of Nowhere
TTITLE18=Autumn Leaves
EXTD=YEAR: 1993
EXTT0=
EXTT1=
EXTT2=
EXTT3=
EXTT4=
EXTT5=
EXTT6=
EXTT7=
EXTT8=
EXTT9=
EXTT10=
EXTT11=
EXTT12=
EXTT13=
EXTT14=
EXTT15=
EXTT16=
EXTT17=
EXTT18=
PLAYORDER=
